<svg id="Layer_1" data-name="Layer 1" xmlns="http://www.w3.org/2000/svg" viewBox="0 0 107.47 104.03"><path d="M97.77,36.83c-2.46,3.93-4.41,7.6-6.94,10.81-.86,1.1-3.16,1.48-4.81,1.49-14.83.11-29.65.06-44.48.07-1.79,0-3.57.15-5.66.24v61.85H97.94c0-6.78.23-13.24-.08-19.67a14,14,0,0,1,3.52-10.47c3-3.48,5.61-7.29,9-11.8V124H23.21V36.83Z" transform="translate(-23.21 -19.94)" fill="#fff"/><path d="M117.77,19.94l12.92,10.28L73.68,106l-28-38.7,12-11.08c5.61,10.77,11,21.14,16.93,32.47C89.19,65.41,103.3,43,117.77,19.94Z" transform="translate(-23.21 -19.94)" fill="#e32928"/></svg>